# Tiled2Unity generated file. Do not modify by hand.
# Wavefront file for 'Port_mesh_0016.obj'

# Vertices (Count = 60)
v -3.2 -0.32 0
v -3.52 -0.32 0
v -3.52 0 0
v -3.2 0 0
v -3.52 -0.32 0
v -3.84 -0.32 0
v -3.84 0 0
v -3.52 0 0
v -3.84 -0.32 0
v -4.16 -0.32 0
v -4.16 0 0
v -3.84 0 0
v -4.16 -0.32 0
v -4.48 -0.32 0
v -4.48 0 0
v -4.16 0 0
v -4.48 -0.32 0
v -4.8 -0.32 0
v -4.8 0 0
v -4.48 0 0
v -3.2 -0.64 0
v -3.52 -0.64 0
v -3.52 -0.32 0
v -3.2 -0.32 0
v -3.52 -0.64 0
v -3.84 -0.64 0
v -3.84 -0.32 0
v -3.52 -0.32 0
v -3.84 -0.64 0
v -4.16 -0.64 0
v -4.16 -0.32 0
v -3.84 -0.32 0
v -4.16 -0.64 0
v -4.48 -0.64 0
v -4.48 -0.32 0
v -4.16 -0.32 0
v -4.48 -0.64 0
v -4.8 -0.64 0
v -4.8 -0.32 0
v -4.48 -0.32 0
v -3.2 -0.96 0
v -3.52 -0.96 0
v -3.52 -0.64 0
v -3.2 -0.64 0
v -3.52 -0.96 0
v -3.84 -0.96 0
v -3.84 -0.64 0
v -3.52 -0.64 0
v -3.84 -0.96 0
v -4.16 -0.96 0
v -4.16 -0.64 0
v -3.84 -0.64 0
v -4.16 -0.96 0
v -4.48 -0.96 0
v -4.48 -0.64 0
v -4.16 -0.64 0
v -4.48 -0.96 0
v -4.8 -0.96 0
v -4.8 -0.64 0
v -4.48 -0.64 0

# Texture cooridinates (Count = 16)
vt 0.4583333 0.9375
vt 0.5 0.9375
vt 0.5 1
vt 0.4583333 1
vt 0.5416667 0.9375
vt 0.5416667 1
vt 0.5833333 0.9375
vt 0.5833333 1
vt 0.4583333 0.875
vt 0.5 0.875
vt 0.5416667 0.875
vt 0.5833333 0.875
vt 0.4583333 0.8125
vt 0.5 0.8125
vt 0.5416667 0.8125
vt 0.5833333 0.8125

# Normal
vn 0 0 -1

# Mesh description
g Port_mesh_0016

# Faces
f 1/1/1 2/2/1 3/3/1 4/4/1
f 5/2/1 6/5/1 7/6/1 8/3/1
f 9/2/1 10/5/1 11/6/1 12/3/1
f 13/2/1 14/5/1 15/6/1 16/3/1
f 17/5/1 18/7/1 19/8/1 20/6/1
f 21/9/1 22/10/1 23/2/1 24/1/1
f 25/10/1 26/11/1 27/5/1 28/2/1
f 29/10/1 30/11/1 31/5/1 32/2/1
f 33/10/1 34/11/1 35/5/1 36/2/1
f 37/11/1 38/12/1 39/7/1 40/5/1
f 41/13/1 42/14/1 43/10/1 44/9/1
f 45/14/1 46/15/1 47/11/1 48/10/1
f 49/14/1 50/15/1 51/11/1 52/10/1
f 53/14/1 54/15/1 55/11/1 56/10/1
f 57/15/1 58/16/1 59/12/1 60/11/1

