# Tiled2Unity generated file. Do not modify by hand.
# Wavefront file for 'Port_mesh_0008.obj'

# Vertices (Count = 16)
v -2.24 -0.32 0
v -2.56 -0.32 0
v -2.56 0 0
v -2.24 0 0
v -2.24 -0.64 0
v -2.56 -0.64 0
v -2.56 -0.32 0
v -2.24 -0.32 0
v -2.24 -1.92 0
v -2.56 -1.92 0
v -2.56 -1.6 0
v -2.24 -1.6 0
v -2.24 -2.24 0
v -2.56 -2.24 0
v -2.56 -1.92 0
v -2.24 -1.92 0

# Texture cooridinates (Count = 6)
vt 0 0.9230769
vt 0.1111111 0.9230769
vt 0.1111111 1
vt 0 1
vt 0 0.8461539
vt 0.1111111 0.8461539

# Normal
vn 0 0 -1

# Mesh description
g Port_mesh_0008

# Faces
f 1/1/1 2/2/1 3/3/1 4/4/1
f 5/5/1 6/6/1 7/2/1 8/1/1
f 9/1/1 10/2/1 11/3/1 12/4/1
f 13/5/1 14/6/1 15/2/1 16/1/1

