# Tiled2Unity generated file. Do not modify by hand.
# Wavefront file for 'Port_mesh_0010.obj'

# Vertices (Count = 16)
v -4.8 -1.28 0
v -5.12 -1.28 0
v -5.12 -0.96 0
v -4.8 -0.96 0
v -5.12 -1.28 0
v -5.44 -1.28 0
v -5.44 -0.96 0
v -5.12 -0.96 0
v -4.8 -2.56 0
v -5.12 -2.56 0
v -5.12 -2.24 0
v -4.8 -2.24 0
v -5.12 -2.56 0
v -5.44 -2.56 0
v -5.44 -2.24 0
v -5.12 -2.24 0

# Texture cooridinates (Count = 12)
vt 0 0.75
vt 0.5 0.75
vt 0.5 1
vt 0 1
vt 1 0.75
vt 1 1
vt 0 0.25
vt 0.5 0.25
vt 0.5 0.5
vt 0 0.5
vt 1 0.25
vt 1 0.5

# Normal
vn 0 0 -1

# Mesh description
g Port_mesh_0010

# Faces
f 1/1/1 2/2/1 3/3/1 4/4/1
f 5/2/1 6/5/1 7/6/1 8/3/1
f 9/7/1 10/8/1 11/9/1 12/10/1
f 13/8/1 14/11/1 15/12/1 16/9/1

