# Tiled2Unity generated file. Do not modify by hand.
# Wavefront file for 'Port_mesh_0004.obj'

# Vertices (Count = 160)
v -0.32 -0.32 0
v -0.64 -0.32 0
v -0.64 0 0
v -0.32 0 0
v -0.32 -0.64 0
v -0.64 -0.64 0
v -0.64 -0.32 0
v -0.32 -0.32 0
v -0.64 -0.64 0
v -0.96 -0.64 0
v -0.96 -0.32 0
v -0.64 -0.32 0
v -0.64 -0.96 0
v -0.96 -0.96 0
v -0.96 -0.64 0
v -0.64 -0.64 0
v -1.28 -0.96 0
v -1.6 -0.96 0
v -1.6 -0.64 0
v -1.28 -0.64 0
v -1.6 -0.96 0
v -1.92 -0.96 0
v -1.92 -0.64 0
v -1.6 -0.64 0
v -0.32 -1.28 0
v -0.64 -1.28 0
v -0.64 -0.96 0
v -0.32 -0.96 0
v -0.96 -1.28 0
v -1.28 -1.28 0
v -1.28 -0.96 0
v -0.96 -0.96 0
v -1.28 -1.28 0
v -1.6 -1.28 0
v -1.6 -0.96 0
v -1.28 -0.96 0
v -1.6 -1.28 0
v -1.92 -1.28 0
v -1.92 -0.96 0
v -1.6 -0.96 0
v -1.92 -1.28 0
v -2.24 -1.28 0
v -2.24 -0.96 0
v -1.92 -0.96 0
v -0.32 -1.6 0
v -0.64 -1.6 0
v -0.64 -1.28 0
v -0.32 -1.28 0
v -0.64 -1.6 0
v -0.96 -1.6 0
v -0.96 -1.28 0
v -0.64 -1.28 0
v -1.28 -1.6 0
v -1.6 -1.6 0
v -1.6 -1.28 0
v -1.28 -1.28 0
v -1.92 -1.6 0
v -2.24 -1.6 0
v -2.24 -1.28 0
v -1.92 -1.28 0
v -0.32 -1.92 0
v -0.64 -1.92 0
v -0.64 -1.6 0
v -0.32 -1.6 0
v -0.96 -1.92 0
v -1.28 -1.92 0
v -1.28 -1.6 0
v -0.96 -1.6 0
v -1.28 -1.92 0
v -1.6 -1.92 0
v -1.6 -1.6 0
v -1.28 -1.6 0
v -1.92 -1.92 0
v -2.24 -1.92 0
v -2.24 -1.6 0
v -1.92 -1.6 0
v -0.32 -2.24 0
v -0.64 -2.24 0
v -0.64 -1.92 0
v -0.32 -1.92 0
v -1.28 -2.24 0
v -1.6 -2.24 0
v -1.6 -1.92 0
v -1.28 -1.92 0
v -0.32 -2.56 0
v -0.64 -2.56 0
v -0.64 -2.24 0
v -0.32 -2.24 0
v -1.28 -2.56 0
v -1.6 -2.56 0
v -1.6 -2.24 0
v -1.28 -2.24 0
v -1.6 -2.56 0
v -1.92 -2.56 0
v -1.92 -2.24 0
v -1.6 -2.24 0
v -1.6 -2.88 0
v -1.92 -2.88 0
v -1.92 -2.56 0
v -1.6 -2.56 0
v -0.32 -3.2 0
v -0.64 -3.2 0
v -0.64 -2.88 0
v -0.32 -2.88 0
v -0.64 -3.2 0
v -0.96 -3.2 0
v -0.96 -2.88 0
v -0.64 -2.88 0
v -0.96 -3.2 0
v -1.28 -3.2 0
v -1.28 -2.88 0
v -0.96 -2.88 0
v -1.28 -3.2 0
v -1.6 -3.2 0
v -1.6 -2.88 0
v -1.28 -2.88 0
v -1.6 -3.2 0
v -1.92 -3.2 0
v -1.92 -2.88 0
v -1.6 -2.88 0
v 0 -3.52 0
v -0.32 -3.52 0
v -0.32 -3.2 0
v 0 -3.2 0
v -0.32 -3.52 0
v -0.64 -3.52 0
v -0.64 -3.2 0
v -0.32 -3.2 0
v 0 -3.84 0
v -0.32 -3.84 0
v -0.32 -3.52 0
v 0 -3.52 0
v 0 -4.16 0
v -0.32 -4.16 0
v -0.32 -3.84 0
v 0 -3.84 0
v -0.32 -4.16 0
v -0.64 -4.16 0
v -0.64 -3.84 0
v -0.32 -3.84 0
v -1.28 -4.16 0
v -1.6 -4.16 0
v -1.6 -3.84 0
v -1.28 -3.84 0
v -0.32 -4.48 0
v -0.64 -4.48 0
v -0.64 -4.16 0
v -0.32 -4.16 0
v -0.64 -4.48 0
v -0.96 -4.48 0
v -0.96 -4.16 0
v -0.64 -4.16 0
v -1.28 -4.48 0
v -1.6 -4.48 0
v -1.6 -4.16 0
v -1.28 -4.16 0
v -1.28 -4.8 0
v -1.6 -4.8 0
v -1.6 -4.48 0
v -1.28 -4.48 0

# Texture cooridinates (Count = 8)
vt 0 0
vt 0.3333333 0
vt 0.3333333 0.1666667
vt 0 0.1666667
vt 0.6666667 0
vt 1 0
vt 1 0.1666667
vt 0.6666667 0.1666667

# Normal
vn 0 0 -1

# Mesh description
g Port_mesh_0004

# Faces
f 1/1/1 2/2/1 3/3/1 4/4/1
f 5/5/1 6/6/1 7/7/1 8/8/1
f 9/2/1 10/5/1 11/8/1 12/3/1
f 13/2/1 14/5/1 15/8/1 16/3/1
f 17/5/1 18/6/1 19/7/1 20/8/1
f 21/1/1 22/2/1 23/3/1 24/4/1
f 25/5/1 26/6/1 27/7/1 28/8/1
f 29/5/1 30/6/1 31/7/1 32/8/1
f 33/2/1 34/5/1 35/8/1 36/3/1
f 37/5/1 38/6/1 39/7/1 40/8/1
f 41/1/1 42/2/1 43/3/1 44/4/1
f 45/5/1 46/6/1 47/7/1 48/8/1
f 49/5/1 50/6/1 51/7/1 52/8/1
f 53/5/1 54/6/1 55/7/1 56/8/1
f 57/5/1 58/6/1 59/7/1 60/8/1
f 61/5/1 62/6/1 63/7/1 64/8/1
f 65/2/1 66/5/1 67/8/1 68/3/1
f 69/5/1 70/6/1 71/7/1 72/8/1
f 73/5/1 74/6/1 75/7/1 76/8/1
f 77/2/1 78/5/1 79/8/1 80/3/1
f 81/5/1 82/6/1 83/7/1 84/8/1
f 85/1/1 86/2/1 87/3/1 88/4/1
f 89/2/1 90/5/1 91/8/1 92/3/1
f 93/2/1 94/5/1 95/8/1 96/3/1
f 97/5/1 98/6/1 99/7/1 100/8/1
f 101/1/1 102/2/1 103/3/1 104/4/1
f 105/1/1 106/2/1 107/3/1 108/4/1
f 109/5/1 110/6/1 111/7/1 112/8/1
f 113/2/1 114/5/1 115/8/1 116/3/1
f 117/2/1 118/5/1 119/8/1 120/3/1
f 121/5/1 122/6/1 123/7/1 124/8/1
f 125/1/1 126/2/1 127/3/1 128/4/1
f 129/2/1 130/5/1 131/8/1 132/3/1
f 133/1/1 134/2/1 135/3/1 136/4/1
f 137/5/1 138/6/1 139/7/1 140/8/1
f 141/5/1 142/6/1 143/7/1 144/8/1
f 145/2/1 146/5/1 147/8/1 148/3/1
f 149/1/1 150/2/1 151/3/1 152/4/1
f 153/5/1 154/6/1 155/7/1 156/8/1
f 157/2/1 158/5/1 159/8/1 160/3/1

