# Tiled2Unity generated file. Do not modify by hand.
# Wavefront file for 'Port_mesh_0013.obj'

# Vertices (Count = 28)
v -6.08 -2.88 0
v -6.4 -2.88 0
v -6.4 -2.56 0
v -6.08 -2.56 0
v -6.08 -3.2 0
v -6.4 -3.2 0
v -6.4 -2.88 0
v -6.08 -2.88 0
v -6.08 -3.52 0
v -6.4 -3.52 0
v -6.4 -3.2 0
v -6.08 -3.2 0
v -6.08 -3.84 0
v -6.4 -3.84 0
v -6.4 -3.52 0
v -6.08 -3.52 0
v -6.08 -4.16 0
v -6.4 -4.16 0
v -6.4 -3.84 0
v -6.08 -3.84 0
v -6.08 -4.48 0
v -6.4 -4.48 0
v -6.4 -4.16 0
v -6.08 -4.16 0
v -6.08 -4.8 0
v -6.4 -4.8 0
v -6.4 -4.48 0
v -6.08 -4.48 0

# Texture cooridinates (Count = 16)
vt 0.05882353 0.9090909
vt 0.1176471 0.9090909
vt 0.1176471 1
vt 0.05882353 1
vt 0.05882353 0.8181818
vt 0.1176471 0.8181818
vt 0.05882353 0.7272727
vt 0.1176471 0.7272727
vt 0.05882353 0.6363636
vt 0.1176471 0.6363636
vt 0.05882353 0.5454545
vt 0.1176471 0.5454545
vt 0.05882353 0.4545454
vt 0.1176471 0.4545454
vt 0.05882353 0.3636364
vt 0.1176471 0.3636364

# Normal
vn 0 0 -1

# Mesh description
g Port_mesh_0013

# Faces
f 1/1/1 2/2/1 3/3/1 4/4/1
f 5/5/1 6/6/1 7/2/1 8/1/1
f 9/7/1 10/8/1 11/6/1 12/5/1
f 13/9/1 14/10/1 15/8/1 16/7/1
f 17/11/1 18/12/1 19/10/1 20/9/1
f 21/13/1 22/14/1 23/12/1 24/11/1
f 25/15/1 26/16/1 27/14/1 28/13/1

