# Tiled2Unity generated file. Do not modify by hand.
# Wavefront file for 'Big_shop_mesh_0011.obj'

# Vertices (Count = 24)
v -0.96 -1.28 0
v -1.28 -1.28 0
v -1.28 -0.96 0
v -0.96 -0.96 0
v -1.28 -1.28 0
v -1.6 -1.28 0
v -1.6 -0.96 0
v -1.28 -0.96 0
v -5.76 -1.28 0
v -6.08 -1.28 0
v -6.08 -0.96 0
v -5.76 -0.96 0
v -0.96 -1.6 0
v -1.28 -1.6 0
v -1.28 -1.28 0
v -0.96 -1.28 0
v -1.28 -1.6 0
v -1.6 -1.6 0
v -1.6 -1.28 0
v -1.28 -1.28 0
v -5.76 -1.6 0
v -6.08 -1.6 0
v -6.08 -1.28 0
v -5.76 -1.28 0

# Texture cooridinates (Count = 9)
vt 0.4166667 0.75
vt 0.4583333 0.75
vt 0.4583333 0.8125
vt 0.4166667 0.8125
vt 0.5 0.75
vt 0.5 0.8125
vt 0.4166667 0.6875
vt 0.4583333 0.6875
vt 0.5 0.6875

# Normal
vn 0 0 -1

# Mesh description
g Big_shop_mesh_0011

# Faces
f 1/1/1 2/2/1 3/3/1 4/4/1
f 5/2/1 6/5/1 7/6/1 8/3/1
f 9/2/1 10/5/1 11/6/1 12/3/1
f 13/7/1 14/8/1 15/2/1 16/1/1
f 17/8/1 18/9/1 19/5/1 20/2/1
f 21/8/1 22/9/1 23/5/1 24/2/1

