# Tiled2Unity generated file. Do not modify by hand.
# Wavefront file for 'Big_shop_mesh_0003.obj'

# Vertices (Count = 172)
v -0.96 -3.84 0
v -1.28 -3.84 0
v -1.28 -3.52 0
v -0.96 -3.52 0
v -1.28 -3.84 0
v -1.6 -3.84 0
v -1.6 -3.52 0
v -1.28 -3.52 0
v -1.6 -3.84 0
v -1.92 -3.84 0
v -1.92 -3.52 0
v -1.6 -3.52 0
v -1.92 -3.84 0
v -2.24 -3.84 0
v -2.24 -3.52 0
v -1.92 -3.52 0
v -2.24 -3.84 0
v -2.56 -3.84 0
v -2.56 -3.52 0
v -2.24 -3.52 0
v -2.56 -3.84 0
v -2.88 -3.84 0
v -2.88 -3.52 0
v -2.56 -3.52 0
v -2.88 -3.84 0
v -3.2 -3.84 0
v -3.2 -3.52 0
v -2.88 -3.52 0
v -3.2 -3.84 0
v -3.52 -3.84 0
v -3.52 -3.52 0
v -3.2 -3.52 0
v -3.52 -3.84 0
v -3.84 -3.84 0
v -3.84 -3.52 0
v -3.52 -3.52 0
v -3.84 -3.84 0
v -4.16 -3.84 0
v -4.16 -3.52 0
v -3.84 -3.52 0
v -4.16 -3.84 0
v -4.48 -3.84 0
v -4.48 -3.52 0
v -4.16 -3.52 0
v -4.48 -3.84 0
v -4.8 -3.84 0
v -4.8 -3.52 0
v -4.48 -3.52 0
v -4.8 -3.84 0
v -5.12 -3.84 0
v -5.12 -3.52 0
v -4.8 -3.52 0
v -5.12 -3.84 0
v -5.44 -3.84 0
v -5.44 -3.52 0
v -5.12 -3.52 0
v -0.96 -4.16 0
v -1.28 -4.16 0
v -1.28 -3.84 0
v -0.96 -3.84 0
v -1.28 -4.16 0
v -1.6 -4.16 0
v -1.6 -3.84 0
v -1.28 -3.84 0
v -1.6 -4.16 0
v -1.92 -4.16 0
v -1.92 -3.84 0
v -1.6 -3.84 0
v -1.92 -4.16 0
v -2.24 -4.16 0
v -2.24 -3.84 0
v -1.92 -3.84 0
v -2.24 -4.16 0
v -2.56 -4.16 0
v -2.56 -3.84 0
v -2.24 -3.84 0
v -2.56 -4.16 0
v -2.88 -4.16 0
v -2.88 -3.84 0
v -2.56 -3.84 0
v -2.88 -4.16 0
v -3.2 -4.16 0
v -3.2 -3.84 0
v -2.88 -3.84 0
v -3.2 -4.16 0
v -3.52 -4.16 0
v -3.52 -3.84 0
v -3.2 -3.84 0
v -3.52 -4.16 0
v -3.84 -4.16 0
v -3.84 -3.84 0
v -3.52 -3.84 0
v -3.84 -4.16 0
v -4.16 -4.16 0
v -4.16 -3.84 0
v -3.84 -3.84 0
v -4.16 -4.16 0
v -4.48 -4.16 0
v -4.48 -3.84 0
v -4.16 -3.84 0
v -4.48 -4.16 0
v -4.8 -4.16 0
v -4.8 -3.84 0
v -4.48 -3.84 0
v -4.8 -4.16 0
v -5.12 -4.16 0
v -5.12 -3.84 0
v -4.8 -3.84 0
v -5.12 -4.16 0
v -5.44 -4.16 0
v -5.44 -3.84 0
v -5.12 -3.84 0
v -0.96 -4.48 0
v -1.28 -4.48 0
v -1.28 -4.16 0
v -0.96 -4.16 0
v -1.28 -4.48 0
v -1.6 -4.48 0
v -1.6 -4.16 0
v -1.28 -4.16 0
v -1.6 -4.48 0
v -1.92 -4.48 0
v -1.92 -4.16 0
v -1.6 -4.16 0
v -1.92 -4.48 0
v -2.24 -4.48 0
v -2.24 -4.16 0
v -1.92 -4.16 0
v -2.24 -4.48 0
v -2.56 -4.48 0
v -2.56 -4.16 0
v -2.24 -4.16 0
v -2.56 -4.48 0
v -2.88 -4.48 0
v -2.88 -4.16 0
v -2.56 -4.16 0
v -2.88 -4.48 0
v -3.2 -4.48 0
v -3.2 -4.16 0
v -2.88 -4.16 0
v -3.2 -4.48 0
v -3.52 -4.48 0
v -3.52 -4.16 0
v -3.2 -4.16 0
v -3.52 -4.48 0
v -3.84 -4.48 0
v -3.84 -4.16 0
v -3.52 -4.16 0
v -3.84 -4.48 0
v -4.16 -4.48 0
v -4.16 -4.16 0
v -3.84 -4.16 0
v -4.16 -4.48 0
v -4.48 -4.48 0
v -4.48 -4.16 0
v -4.16 -4.16 0
v -4.48 -4.48 0
v -4.8 -4.48 0
v -4.8 -4.16 0
v -4.48 -4.16 0
v -4.8 -4.48 0
v -5.12 -4.48 0
v -5.12 -4.16 0
v -4.8 -4.16 0
v -5.12 -4.48 0
v -5.44 -4.48 0
v -5.44 -4.16 0
v -5.12 -4.16 0
v -3.52 -4.8 0
v -3.84 -4.8 0
v -3.84 -4.48 0
v -3.52 -4.48 0

# Texture cooridinates (Count = 40)
vt 0.6 0.8
vt 0.7 0.8
vt 0.7 0.9
vt 0.6 0.9
vt 0.8 0.8
vt 0.8 0.9
vt 0.9 0.8
vt 0.9 0.9
vt 0.2 0.2
vt 0.3 0.2
vt 0.3 0.3
vt 0.2 0.3
vt 0.1 0.8
vt 0.2 0.8
vt 0.2 0.9
vt 0.1 0.9
vt 0.3 0.8
vt 0.3 0.9
vt 0.4 0.8
vt 0.4 0.9
vt 0.7 0.7
vt 0.8 0.7
vt 0.9 0.7
vt 0.1 0.7
vt 0.2 0.7
vt 0.3 0.7
vt 0.4 0.7
vt 0.6 0.6
vt 0.7 0.6
vt 0.6 0.7
vt 0.8 0.6
vt 0.9 0.6
vt 0.1 0.6
vt 0.2 0.6
vt 0.3 0.6
vt 0.4 0.6
vt 0.8 0.1
vt 0.9 0.1
vt 0.9 0.2
vt 0.8 0.2

# Normal
vn 0 0 -1

# Mesh description
g Big_shop_mesh_0003

# Faces
f 1/1/1 2/2/1 3/3/1 4/4/1
f 5/2/1 6/5/1 7/6/1 8/3/1
f 9/2/1 10/5/1 11/6/1 12/3/1
f 13/2/1 14/5/1 15/6/1 16/3/1
f 17/2/1 18/5/1 19/6/1 20/3/1
f 21/2/1 22/5/1 23/6/1 24/3/1
f 25/5/1 26/7/1 27/8/1 28/6/1
f 29/9/1 30/10/1 31/11/1 32/12/1
f 33/13/1 34/14/1 35/15/1 36/16/1
f 37/14/1 38/17/1 39/18/1 40/15/1
f 41/14/1 42/17/1 43/18/1 44/15/1
f 45/14/1 46/17/1 47/18/1 48/15/1
f 49/14/1 50/17/1 51/18/1 52/15/1
f 53/17/1 54/19/1 55/20/1 56/18/1
f 57/21/1 58/22/1 59/5/1 60/2/1
f 61/21/1 62/22/1 63/5/1 64/2/1
f 65/21/1 66/22/1 67/5/1 68/2/1
f 69/21/1 70/22/1 71/5/1 72/2/1
f 73/21/1 74/22/1 75/5/1 76/2/1
f 77/21/1 78/22/1 79/5/1 80/2/1
f 81/22/1 82/23/1 83/7/1 84/5/1
f 85/9/1 86/10/1 87/11/1 88/12/1
f 89/24/1 90/25/1 91/14/1 92/13/1
f 93/25/1 94/26/1 95/17/1 96/14/1
f 97/25/1 98/26/1 99/17/1 100/14/1
f 101/25/1 102/26/1 103/17/1 104/14/1
f 105/25/1 106/26/1 107/17/1 108/14/1
f 109/26/1 110/27/1 111/19/1 112/17/1
f 113/28/1 114/29/1 115/21/1 116/30/1
f 117/29/1 118/31/1 119/22/1 120/21/1
f 121/29/1 122/31/1 123/22/1 124/21/1
f 125/29/1 126/31/1 127/22/1 128/21/1
f 129/29/1 130/31/1 131/22/1 132/21/1
f 133/29/1 134/31/1 135/22/1 136/21/1
f 137/31/1 138/32/1 139/23/1 140/22/1
f 141/9/1 142/10/1 143/11/1 144/12/1
f 145/33/1 146/34/1 147/25/1 148/24/1
f 149/35/1 150/36/1 151/27/1 152/26/1
f 153/34/1 154/35/1 155/26/1 156/25/1
f 157/34/1 158/35/1 159/26/1 160/25/1
f 161/34/1 162/35/1 163/26/1 164/25/1
f 165/35/1 166/36/1 167/27/1 168/26/1
f 169/37/1 170/38/1 171/39/1 172/40/1

