# Tiled2Unity generated file. Do not modify by hand.
# Wavefront file for 'Big_shop_mesh_0008.obj'

# Vertices (Count = 16)
v -0.96 -2.56 0
v -1.28 -2.56 0
v -1.28 -2.24 0
v -0.96 -2.24 0
v -1.6 -2.56 0
v -1.92 -2.56 0
v -1.92 -2.24 0
v -1.6 -2.24 0
v -0.96 -2.88 0
v -1.28 -2.88 0
v -1.28 -2.56 0
v -0.96 -2.56 0
v -1.6 -2.88 0
v -1.92 -2.88 0
v -1.92 -2.56 0
v -1.6 -2.56 0

# Texture cooridinates (Count = 4)
vt 0.125 0.6875
vt 0.1666667 0.6875
vt 0.1666667 0.75
vt 0.125 0.75

# Normal
vn 0 0 -1

# Mesh description
g Big_shop_mesh_0008

# Faces
f 1/1/1 2/2/1 3/3/1 4/4/1
f 5/1/1 6/2/1 7/3/1 8/4/1
f 9/1/1 10/2/1 11/3/1 12/4/1
f 13/1/1 14/2/1 15/3/1 16/4/1

