# Tiled2Unity generated file. Do not modify by hand.
# Wavefront file for 'StartingMap_mesh_0002.obj'

# Vertices (Count = 16)
v -2.56 -0.64 0
v -2.88 -0.64 0
v -2.88 -0.32 0
v -2.56 -0.32 0
v -3.84 -0.96 0
v -4.16 -0.96 0
v -4.16 -0.64 0
v -3.84 -0.64 0
v -0.96 -1.92 0
v -1.28 -1.92 0
v -1.28 -1.6 0
v -0.96 -1.6 0
v -3.2 -4.16 0
v -3.52 -4.16 0
v -3.52 -3.84 0
v -3.2 -3.84 0

# Texture cooridinates (Count = 8)
vt 0.125 0.90625
vt 0.1875 0.90625
vt 0.1875 0.9375
vt 0.125 0.9375
vt 0.0625 0.84375
vt 0.125 0.84375
vt 0.125 0.875
vt 0.0625 0.875

# Normal
vn 0 0 -1

# Mesh description
g StartingMap_mesh_0002

# Faces
f 1/1/1 2/2/1 3/3/1 4/4/1
f 5/1/1 6/2/1 7/3/1 8/4/1
f 9/5/1 10/6/1 11/7/1 12/8/1
f 13/5/1 14/6/1 15/7/1 16/8/1

