# Tiled2Unity generated file. Do not modify by hand.
# Wavefront file for 'home_mesh_0005.obj'

# Vertices (Count = 12)
v -0.96 -2.24 0
v -1.28 -2.24 0
v -1.28 -1.92 0
v -0.96 -1.92 0
v -0.96 -2.56 0
v -1.28 -2.56 0
v -1.28 -2.24 0
v -0.96 -2.24 0
v -0.96 -2.88 0
v -1.28 -2.88 0
v -1.28 -2.56 0
v -0.96 -2.56 0

# Texture cooridinates (Count = 8)
vt 0.2083333 0.9375
vt 0.25 0.9375
vt 0.25 1
vt 0.2083333 1
vt 0.2083333 0.875
vt 0.25 0.875
vt 0.2083333 0.8125
vt 0.25 0.8125

# Normal
vn 0 0 -1

# Mesh description
g home_mesh_0005

# Faces
f 1/1/1 2/2/1 3/3/1 4/4/1
f 5/5/1 6/6/1 7/2/1 8/1/1
f 9/7/1 10/8/1 11/6/1 12/5/1

