# Tiled2Unity generated file. Do not modify by hand.
# Wavefront file for 'CastleEntrance_mesh_0019.obj'

# Vertices (Count = 16)
v -3.2 -0.32 0
v -3.52 -0.32 0
v -3.52 0 0
v -3.2 0 0
v -5.76 -0.32 0
v -6.08 -0.32 0
v -6.08 0 0
v -5.76 0 0
v -3.2 -0.64 0
v -3.52 -0.64 0
v -3.52 -0.32 0
v -3.2 -0.32 0
v -5.76 -0.64 0
v -6.08 -0.64 0
v -6.08 -0.32 0
v -5.76 -0.32 0

# Texture cooridinates (Count = 6)
vt 0.4 0.75
vt 0.6 0.75
vt 0.6 1
vt 0.4 1
vt 0.4 0.5
vt 0.6 0.5

# Normal
vn 0 0 -1

# Mesh description
g CastleEntrance_mesh_0019

# Faces
f 1/1/1 2/2/1 3/3/1 4/4/1
f 5/1/1 6/2/1 7/3/1 8/4/1
f 9/5/1 10/6/1 11/2/1 12/1/1
f 13/5/1 14/6/1 15/2/1 16/1/1

