# Tiled2Unity generated file. Do not modify by hand.
# Wavefront file for 'CastleEntrance_mesh_0006.obj'

# Vertices (Count = 52)
v -2.56 -0.96 0
v -2.88 -0.96 0
v -2.88 -0.64 0
v -2.56 -0.64 0
v -2.88 -0.96 0
v -3.2 -0.96 0
v -3.2 -0.64 0
v -2.88 -0.64 0
v -2.56 -1.28 0
v -2.88 -1.28 0
v -2.88 -0.96 0
v -2.56 -0.96 0
v -2.88 -1.28 0
v -3.2 -1.28 0
v -3.2 -0.96 0
v -2.88 -0.96 0
v -5.44 -1.28 0
v -5.76 -1.28 0
v -5.76 -0.96 0
v -5.44 -0.96 0
v -5.76 -1.28 0
v -6.08 -1.28 0
v -6.08 -0.96 0
v -5.76 -0.96 0
v -6.08 -1.28 0
v -6.4 -1.28 0
v -6.4 -0.96 0
v -6.08 -0.96 0
v -5.76 -1.6 0
v -6.08 -1.6 0
v -6.08 -1.28 0
v -5.76 -1.28 0
v -6.08 -1.6 0
v -6.4 -1.6 0
v -6.4 -1.28 0
v -6.08 -1.28 0
v -5.44 -1.92 0
v -5.76 -1.92 0
v -5.76 -1.6 0
v -5.44 -1.6 0
v -5.76 -1.92 0
v -6.08 -1.92 0
v -6.08 -1.6 0
v -5.76 -1.6 0
v -6.08 -2.24 0
v -6.4 -2.24 0
v -6.4 -1.92 0
v -6.08 -1.92 0
v -6.08 -2.56 0
v -6.4 -2.56 0
v -6.4 -2.24 0
v -6.08 -2.24 0

# Texture cooridinates (Count = 19)
vt 0.5 0.21875
vt 0.5625 0.21875
vt 0.5625 0.25
vt 0.5 0.25
vt 0.625 0.21875
vt 0.625 0.25
vt 0.5 0.1875
vt 0.5625 0.1875
vt 0.625 0.1875
vt 0.875 0.875
vt 0.9375 0.875
vt 0.9375 0.90625
vt 0.875 0.90625
vt 0.25 0.09375
vt 0.3125 0.09375
vt 0.3125 0.125
vt 0.25 0.125
vt 0.375 0.09375
vt 0.375 0.125

# Normal
vn 0 0 -1

# Mesh description
g CastleEntrance_mesh_0006

# Faces
f 1/1/1 2/2/1 3/3/1 4/4/1
f 5/2/1 6/5/1 7/6/1 8/3/1
f 9/7/1 10/8/1 11/2/1 12/1/1
f 13/8/1 14/9/1 15/5/1 16/2/1
f 17/10/1 18/11/1 19/12/1 20/13/1
f 21/1/1 22/2/1 23/3/1 24/4/1
f 25/2/1 26/5/1 27/6/1 28/3/1
f 29/7/1 30/8/1 31/2/1 32/1/1
f 33/8/1 34/9/1 35/5/1 36/2/1
f 37/14/1 38/15/1 39/16/1 40/17/1
f 41/15/1 42/18/1 43/19/1 44/16/1
f 45/1/1 46/2/1 47/3/1 48/4/1
f 49/7/1 50/8/1 51/2/1 52/1/1

