# Tiled2Unity generated file. Do not modify by hand.
# Wavefront file for 'CastleEntrance_mesh_0002.obj'

# Vertices (Count = 136)
v -5.76 -0.96 0
v -6.08 -0.96 0
v -6.08 -0.64 0
v -5.76 -0.64 0
v -2.56 -1.28 0
v -2.88 -1.28 0
v -2.88 -0.96 0
v -2.56 -0.96 0
v -2.88 -1.28 0
v -3.2 -1.28 0
v -3.2 -0.96 0
v -2.88 -0.96 0
v -3.52 -1.28 0
v -3.84 -1.28 0
v -3.84 -0.96 0
v -3.52 -0.96 0
v -5.44 -1.28 0
v -5.76 -1.28 0
v -5.76 -0.96 0
v -5.44 -0.96 0
v -5.76 -1.28 0
v -6.08 -1.28 0
v -6.08 -0.96 0
v -5.76 -0.96 0
v -6.08 -1.28 0
v -6.4 -1.28 0
v -6.4 -0.96 0
v -6.08 -0.96 0
v -2.88 -1.6 0
v -3.2 -1.6 0
v -3.2 -1.28 0
v -2.88 -1.28 0
v -3.2 -1.6 0
v -3.52 -1.6 0
v -3.52 -1.28 0
v -3.2 -1.28 0
v -3.52 -1.6 0
v -3.84 -1.6 0
v -3.84 -1.28 0
v -3.52 -1.28 0
v -5.76 -1.6 0
v -6.08 -1.6 0
v -6.08 -1.28 0
v -5.76 -1.28 0
v -6.08 -1.6 0
v -6.4 -1.6 0
v -6.4 -1.28 0
v -6.08 -1.28 0
v -2.88 -1.92 0
v -3.2 -1.92 0
v -3.2 -1.6 0
v -2.88 -1.6 0
v -3.2 -1.92 0
v -3.52 -1.92 0
v -3.52 -1.6 0
v -3.2 -1.6 0
v -5.76 -1.92 0
v -6.08 -1.92 0
v -6.08 -1.6 0
v -5.76 -1.6 0
v -6.08 -1.92 0
v -6.4 -1.92 0
v -6.4 -1.6 0
v -6.08 -1.6 0
v -6.08 -2.24 0
v -6.4 -2.24 0
v -6.4 -1.92 0
v -6.08 -1.92 0
v 0 -2.56 0
v -0.32 -2.56 0
v -0.32 -2.24 0
v 0 -2.24 0
v -0.32 -2.56 0
v -0.64 -2.56 0
v -0.64 -2.24 0
v -0.32 -2.24 0
v 0 -2.88 0
v -0.32 -2.88 0
v -0.32 -2.56 0
v 0 -2.56 0
v -0.32 -2.88 0
v -0.64 -2.88 0
v -0.64 -2.56 0
v -0.32 -2.56 0
v -0.64 -2.88 0
v -0.96 -2.88 0
v -0.96 -2.56 0
v -0.64 -2.56 0
v -6.08 -3.84 0
v -6.4 -3.84 0
v -6.4 -3.52 0
v -6.08 -3.52 0
v -2.24 -4.16 0
v -2.56 -4.16 0
v -2.56 -3.84 0
v -2.24 -3.84 0
v -2.56 -4.16 0
v -2.88 -4.16 0
v -2.88 -3.84 0
v -2.56 -3.84 0
v -2.88 -4.16 0
v -3.2 -4.16 0
v -3.2 -3.84 0
v -2.88 -3.84 0
v -3.52 -4.16 0
v -3.84 -4.16 0
v -3.84 -3.84 0
v -3.52 -3.84 0
v -3.84 -4.16 0
v -4.16 -4.16 0
v -4.16 -3.84 0
v -3.84 -3.84 0
v -5.76 -4.16 0
v -6.08 -4.16 0
v -6.08 -3.84 0
v -5.76 -3.84 0
v -6.08 -4.16 0
v -6.4 -4.16 0
v -6.4 -3.84 0
v -6.08 -3.84 0
v -0.32 -4.48 0
v -0.64 -4.48 0
v -0.64 -4.16 0
v -0.32 -4.16 0
v -3.52 -4.48 0
v -3.84 -4.48 0
v -3.84 -4.16 0
v -3.52 -4.16 0
v -5.76 -4.48 0
v -6.08 -4.48 0
v -6.08 -4.16 0
v -5.76 -4.16 0
v -0.32 -4.8 0
v -0.64 -4.8 0
v -0.64 -4.48 0
v -0.32 -4.48 0

# Texture cooridinates (Count = 12)
vt 0.6666667 0
vt 1 0
vt 1 0.1666667
vt 0.6666667 0.1666667
vt 0.3333333 0
vt 0.3333333 0.1666667
vt 0 0
vt 0 0.1666667
vt 0.3333333 0.3333333
vt 0.6666667 0.3333333
vt 0.6666667 0.5
vt 0.3333333 0.5

# Normal
vn 0 0 -1

# Mesh description
g CastleEntrance_mesh_0002

# Faces
f 1/1/1 2/2/1 3/3/1 4/4/1
f 5/5/1 6/1/1 7/4/1 8/6/1
f 9/1/1 10/2/1 11/3/1 12/4/1
f 13/1/1 14/2/1 15/3/1 16/4/1
f 17/1/1 18/2/1 19/3/1 20/4/1
f 21/1/1 22/2/1 23/3/1 24/4/1
f 25/5/1 26/1/1 27/4/1 28/6/1
f 29/7/1 30/5/1 31/6/1 32/8/1
f 33/1/1 34/2/1 35/3/1 36/4/1
f 37/7/1 38/5/1 39/6/1 40/8/1
f 41/1/1 42/2/1 43/3/1 44/4/1
f 45/7/1 46/5/1 47/6/1 48/8/1
f 49/1/1 50/2/1 51/3/1 52/4/1
f 53/1/1 54/2/1 55/3/1 56/4/1
f 57/1/1 58/2/1 59/3/1 60/4/1
f 61/1/1 62/2/1 63/3/1 64/4/1
f 65/1/1 66/2/1 67/3/1 68/4/1
f 69/1/1 70/2/1 71/3/1 72/4/1
f 73/5/1 74/1/1 75/4/1 76/6/1
f 77/1/1 78/2/1 79/3/1 80/4/1
f 81/1/1 82/2/1 83/3/1 84/4/1
f 85/5/1 86/1/1 87/4/1 88/6/1
f 89/5/1 90/1/1 91/4/1 92/6/1
f 93/9/1 94/10/1 95/11/1 96/12/1
f 97/9/1 98/10/1 99/11/1 100/12/1
f 101/9/1 102/10/1 103/11/1 104/12/1
f 105/7/1 106/5/1 107/6/1 108/8/1
f 109/7/1 110/5/1 111/6/1 112/8/1
f 113/5/1 114/1/1 115/4/1 116/6/1
f 117/5/1 118/1/1 119/4/1 120/6/1
f 121/7/1 122/5/1 123/6/1 124/8/1
f 125/7/1 126/5/1 127/6/1 128/8/1
f 129/5/1 130/1/1 131/4/1 132/6/1
f 133/1/1 134/2/1 135/3/1 136/4/1

