# Tiled2Unity generated file. Do not modify by hand.
# Wavefront file for 'CastleEntrance_mesh_0014.obj'

# Vertices (Count = 12)
v -0.32 -2.24 0
v -0.64 -2.24 0
v -0.64 -1.92 0
v -0.32 -1.92 0
v -0.64 -2.24 0
v -0.96 -2.24 0
v -0.96 -1.92 0
v -0.64 -1.92 0
v -0.64 -2.56 0
v -0.96 -2.56 0
v -0.96 -2.24 0
v -0.64 -2.24 0

# Texture cooridinates (Count = 8)
vt 0 0.5
vt 0.3333333 0.5
vt 0.3333333 1
vt 0 1
vt 0.6666667 0.5
vt 0.6666667 1
vt 0.3333333 0
vt 0.6666667 0

# Normal
vn 0 0 -1

# Mesh description
g CastleEntrance_mesh_0014

# Faces
f 1/1/1 2/2/1 3/3/1 4/4/1
f 5/2/1 6/5/1 7/6/1 8/3/1
f 9/7/1 10/8/1 11/5/1 12/2/1

