# Tiled2Unity generated file. Do not modify by hand.
# Wavefront file for 'HomeOutside_mesh_0011.obj'

# Vertices (Count = 32)
v -0.32 -0.96 0
v -0.64 -0.96 0
v -0.64 -0.64 0
v -0.32 -0.64 0
v -0.64 -0.96 0
v -0.96 -0.96 0
v -0.96 -0.64 0
v -0.64 -0.64 0
v -0.32 -1.28 0
v -0.64 -1.28 0
v -0.64 -0.96 0
v -0.32 -0.96 0
v -0.64 -1.28 0
v -0.96 -1.28 0
v -0.96 -0.96 0
v -0.64 -0.96 0
v -1.6 -2.56 0
v -1.92 -2.56 0
v -1.92 -2.24 0
v -1.6 -2.24 0
v -1.6 -2.88 0
v -1.92 -2.88 0
v -1.92 -2.56 0
v -1.6 -2.56 0
v -5.12 -4.16 0
v -5.44 -4.16 0
v -5.44 -3.84 0
v -5.12 -3.84 0
v -5.12 -4.48 0
v -5.44 -4.48 0
v -5.44 -4.16 0
v -5.12 -4.16 0

# Texture cooridinates (Count = 15)
vt 0.5 0.5
vt 0.75 0.5
vt 0.75 1
vt 0.5 1
vt 1 0.5
vt 1 1
vt 0.5 0
vt 0.75 0
vt 1 0
vt 0 0.5
vt 0.25 0.5
vt 0.25 1
vt 0 1
vt 0 0
vt 0.25 0

# Normal
vn 0 0 -1

# Mesh description
g HomeOutside_mesh_0011

# Faces
f 1/1/1 2/2/1 3/3/1 4/4/1
f 5/2/1 6/5/1 7/6/1 8/3/1
f 9/7/1 10/8/1 11/2/1 12/1/1
f 13/8/1 14/9/1 15/5/1 16/2/1
f 17/10/1 18/11/1 19/12/1 20/13/1
f 21/14/1 22/15/1 23/11/1 24/10/1
f 25/11/1 26/1/1 27/4/1 28/12/1
f 29/15/1 30/7/1 31/1/1 32/11/1

