# Tiled2Unity generated file. Do not modify by hand.
# Wavefront file for 'HomeOutside_mesh_0004.obj'

# Vertices (Count = 348)
v -1.6 -1.92 0
v -1.92 -1.92 0
v -1.92 -1.6 0
v -1.6 -1.6 0
v -1.92 -1.92 0
v -2.24 -1.92 0
v -2.24 -1.6 0
v -1.92 -1.6 0
v -2.24 -1.92 0
v -2.56 -1.92 0
v -2.56 -1.6 0
v -2.24 -1.6 0
v -2.56 -1.92 0
v -2.88 -1.92 0
v -2.88 -1.6 0
v -2.56 -1.6 0
v -2.88 -1.92 0
v -3.2 -1.92 0
v -3.2 -1.6 0
v -2.88 -1.6 0
v -3.2 -1.92 0
v -3.52 -1.92 0
v -3.52 -1.6 0
v -3.2 -1.6 0
v -1.6 -2.24 0
v -1.92 -2.24 0
v -1.92 -1.92 0
v -1.6 -1.92 0
v -1.92 -2.24 0
v -2.24 -2.24 0
v -2.24 -1.92 0
v -1.92 -1.92 0
v -2.24 -2.24 0
v -2.56 -2.24 0
v -2.56 -1.92 0
v -2.24 -1.92 0
v -2.56 -2.24 0
v -2.88 -2.24 0
v -2.88 -1.92 0
v -2.56 -1.92 0
v -2.88 -2.24 0
v -3.2 -2.24 0
v -3.2 -1.92 0
v -2.88 -1.92 0
v -3.2 -2.24 0
v -3.52 -2.24 0
v -3.52 -1.92 0
v -3.2 -1.92 0
v -3.52 -2.24 0
v -3.84 -2.24 0
v -3.84 -1.92 0
v -3.52 -1.92 0
v -0.96 -2.56 0
v -1.28 -2.56 0
v -1.28 -2.24 0
v -0.96 -2.24 0
v -1.28 -2.56 0
v -1.6 -2.56 0
v -1.6 -2.24 0
v -1.28 -2.24 0
v -1.6 -2.56 0
v -1.92 -2.56 0
v -1.92 -2.24 0
v -1.6 -2.24 0
v -1.92 -2.56 0
v -2.24 -2.56 0
v -2.24 -2.24 0
v -1.92 -2.24 0
v -2.24 -2.56 0
v -2.56 -2.56 0
v -2.56 -2.24 0
v -2.24 -2.24 0
v -2.56 -2.56 0
v -2.88 -2.56 0
v -2.88 -2.24 0
v -2.56 -2.24 0
v -2.88 -2.56 0
v -3.2 -2.56 0
v -3.2 -2.24 0
v -2.88 -2.24 0
v -3.2 -2.56 0
v -3.52 -2.56 0
v -3.52 -2.24 0
v -3.2 -2.24 0
v -3.52 -2.56 0
v -3.84 -2.56 0
v -3.84 -2.24 0
v -3.52 -2.24 0
v -3.84 -2.56 0
v -4.16 -2.56 0
v -4.16 -2.24 0
v -3.84 -2.24 0
v -0.64 -2.88 0
v -0.96 -2.88 0
v -0.96 -2.56 0
v -0.64 -2.56 0
v -0.96 -2.88 0
v -1.28 -2.88 0
v -1.28 -2.56 0
v -0.96 -2.56 0
v -1.28 -2.88 0
v -1.6 -2.88 0
v -1.6 -2.56 0
v -1.28 -2.56 0
v -1.6 -2.88 0
v -1.92 -2.88 0
v -1.92 -2.56 0
v -1.6 -2.56 0
v -1.92 -2.88 0
v -2.24 -2.88 0
v -2.24 -2.56 0
v -1.92 -2.56 0
v -2.24 -2.88 0
v -2.56 -2.88 0
v -2.56 -2.56 0
v -2.24 -2.56 0
v -2.56 -2.88 0
v -2.88 -2.88 0
v -2.88 -2.56 0
v -2.56 -2.56 0
v -2.88 -2.88 0
v -3.2 -2.88 0
v -3.2 -2.56 0
v -2.88 -2.56 0
v -3.2 -2.88 0
v -3.52 -2.88 0
v -3.52 -2.56 0
v -3.2 -2.56 0
v -3.52 -2.88 0
v -3.84 -2.88 0
v -3.84 -2.56 0
v -3.52 -2.56 0
v -3.84 -2.88 0
v -4.16 -2.88 0
v -4.16 -2.56 0
v -3.84 -2.56 0
v -4.16 -2.88 0
v -4.48 -2.88 0
v -4.48 -2.56 0
v -4.16 -2.56 0
v -4.48 -2.88 0
v -4.8 -2.88 0
v -4.8 -2.56 0
v -4.48 -2.56 0
v -0.32 -3.2 0
v -0.64 -3.2 0
v -0.64 -2.88 0
v -0.32 -2.88 0
v -0.64 -3.2 0
v -0.96 -3.2 0
v -0.96 -2.88 0
v -0.64 -2.88 0
v -0.96 -3.2 0
v -1.28 -3.2 0
v -1.28 -2.88 0
v -0.96 -2.88 0
v -1.28 -3.2 0
v -1.6 -3.2 0
v -1.6 -2.88 0
v -1.28 -2.88 0
v -1.6 -3.2 0
v -1.92 -3.2 0
v -1.92 -2.88 0
v -1.6 -2.88 0
v -1.92 -3.2 0
v -2.24 -3.2 0
v -2.24 -2.88 0
v -1.92 -2.88 0
v -2.24 -3.2 0
v -2.56 -3.2 0
v -2.56 -2.88 0
v -2.24 -2.88 0
v -2.56 -3.2 0
v -2.88 -3.2 0
v -2.88 -2.88 0
v -2.56 -2.88 0
v -2.88 -3.2 0
v -3.2 -3.2 0
v -3.2 -2.88 0
v -2.88 -2.88 0
v -3.2 -3.2 0
v -3.52 -3.2 0
v -3.52 -2.88 0
v -3.2 -2.88 0
v -3.52 -3.2 0
v -3.84 -3.2 0
v -3.84 -2.88 0
v -3.52 -2.88 0
v -3.84 -3.2 0
v -4.16 -3.2 0
v -4.16 -2.88 0
v -3.84 -2.88 0
v -4.16 -3.2 0
v -4.48 -3.2 0
v -4.48 -2.88 0
v -4.16 -2.88 0
v -4.48 -3.2 0
v -4.8 -3.2 0
v -4.8 -2.88 0
v -4.48 -2.88 0
v -4.8 -3.2 0
v -5.12 -3.2 0
v -5.12 -2.88 0
v -4.8 -2.88 0
v -0.32 -3.52 0
v -0.64 -3.52 0
v -0.64 -3.2 0
v -0.32 -3.2 0
v -0.64 -3.52 0
v -0.96 -3.52 0
v -0.96 -3.2 0
v -0.64 -3.2 0
v -0.96 -3.52 0
v -1.28 -3.52 0
v -1.28 -3.2 0
v -0.96 -3.2 0
v -1.28 -3.52 0
v -1.6 -3.52 0
v -1.6 -3.2 0
v -1.28 -3.2 0
v -1.6 -3.52 0
v -1.92 -3.52 0
v -1.92 -3.2 0
v -1.6 -3.2 0
v -3.2 -3.52 0
v -3.52 -3.52 0
v -3.52 -3.2 0
v -3.2 -3.2 0
v -3.52 -3.52 0
v -3.84 -3.52 0
v -3.84 -3.2 0
v -3.52 -3.2 0
v -3.84 -3.52 0
v -4.16 -3.52 0
v -4.16 -3.2 0
v -3.84 -3.2 0
v -4.16 -3.52 0
v -4.48 -3.52 0
v -4.48 -3.2 0
v -4.16 -3.2 0
v -4.48 -3.52 0
v -4.8 -3.52 0
v -4.8 -3.2 0
v -4.48 -3.2 0
v -4.8 -3.52 0
v -5.12 -3.52 0
v -5.12 -3.2 0
v -4.8 -3.2 0
v -5.12 -3.52 0
v -5.44 -3.52 0
v -5.44 -3.2 0
v -5.12 -3.2 0
v -5.44 -3.52 0
v -5.76 -3.52 0
v -5.76 -3.2 0
v -5.44 -3.2 0
v -5.76 -3.52 0
v -6.08 -3.52 0
v -6.08 -3.2 0
v -5.76 -3.2 0
v -6.08 -3.52 0
v -6.4 -3.52 0
v -6.4 -3.2 0
v -6.08 -3.2 0
v -0.32 -3.84 0
v -0.64 -3.84 0
v -0.64 -3.52 0
v -0.32 -3.52 0
v -0.64 -3.84 0
v -0.96 -3.84 0
v -0.96 -3.52 0
v -0.64 -3.52 0
v -0.96 -3.84 0
v -1.28 -3.84 0
v -1.28 -3.52 0
v -0.96 -3.52 0
v -1.28 -3.84 0
v -1.6 -3.84 0
v -1.6 -3.52 0
v -1.28 -3.52 0
v -3.84 -3.84 0
v -4.16 -3.84 0
v -4.16 -3.52 0
v -3.84 -3.52 0
v -4.16 -3.84 0
v -4.48 -3.84 0
v -4.48 -3.52 0
v -4.16 -3.52 0
v -4.48 -3.84 0
v -4.8 -3.84 0
v -4.8 -3.52 0
v -4.48 -3.52 0
v -4.8 -3.84 0
v -5.12 -3.84 0
v -5.12 -3.52 0
v -4.8 -3.52 0
v -5.12 -3.84 0
v -5.44 -3.84 0
v -5.44 -3.52 0
v -5.12 -3.52 0
v -5.44 -3.84 0
v -5.76 -3.84 0
v -5.76 -3.52 0
v -5.44 -3.52 0
v -5.76 -3.84 0
v -6.08 -3.84 0
v -6.08 -3.52 0
v -5.76 -3.52 0
v -6.08 -3.84 0
v -6.4 -3.84 0
v -6.4 -3.52 0
v -6.08 -3.52 0
v -0.32 -4.16 0
v -0.64 -4.16 0
v -0.64 -3.84 0
v -0.32 -3.84 0
v -0.64 -4.16 0
v -0.96 -4.16 0
v -0.96 -3.84 0
v -0.64 -3.84 0
v -0.96 -4.16 0
v -1.28 -4.16 0
v -1.28 -3.84 0
v -0.96 -3.84 0
v -4.48 -4.16 0
v -4.8 -4.16 0
v -4.8 -3.84 0
v -4.48 -3.84 0
v -4.8 -4.16 0
v -5.12 -4.16 0
v -5.12 -3.84 0
v -4.8 -3.84 0
v -5.12 -4.16 0
v -5.44 -4.16 0
v -5.44 -3.84 0
v -5.12 -3.84 0
v -5.44 -4.16 0
v -5.76 -4.16 0
v -5.76 -3.84 0
v -5.44 -3.84 0
v -5.76 -4.16 0
v -6.08 -4.16 0
v -6.08 -3.84 0
v -5.76 -3.84 0
v -6.08 -4.16 0
v -6.4 -4.16 0
v -6.4 -3.84 0
v -6.08 -3.84 0

# Texture cooridinates (Count = 22)
vt 0 0.5
vt 0.3333333 0.5
vt 0.3333333 0.6666666
vt 0 0.6666666
vt 0.6666667 0.5
vt 0.6666667 0.6666666
vt 1 0.5
vt 1 0.6666666
vt 0 0.3333333
vt 0.3333333 0.3333333
vt 0.6666667 0.3333333
vt 0.6666667 0.8333333
vt 0.3333333 0.8333333
vt 1 0.8333333
vt 0.6666667 1
vt 0.3333333 1
vt 1 1
vt 0.3333333 0.1666667
vt 0.6666667 0.1666667
vt 1 0.1666667
vt 1 0.3333333
vt 0 0.1666667

# Normal
vn 0 0 -1

# Mesh description
g HomeOutside_mesh_0004

# Faces
f 1/1/1 2/2/1 3/3/1 4/4/1
f 5/2/1 6/5/1 7/6/1 8/3/1
f 9/2/1 10/5/1 11/6/1 12/3/1
f 13/2/1 14/5/1 15/6/1 16/3/1
f 17/2/1 18/5/1 19/6/1 20/3/1
f 21/5/1 22/7/1 23/8/1 24/6/1
f 25/9/1 26/10/1 27/2/1 28/1/1
f 29/10/1 30/11/1 31/5/1 32/2/1
f 33/10/1 34/11/1 35/5/1 36/2/1
f 37/10/1 38/11/1 39/5/1 40/2/1
f 41/10/1 42/11/1 43/5/1 44/2/1
f 45/3/1 46/6/1 47/12/1 48/13/1
f 49/5/1 50/7/1 51/8/1 52/6/1
f 53/1/1 54/2/1 55/3/1 56/4/1
f 57/2/1 58/5/1 59/6/1 60/3/1
f 61/6/1 62/8/1 63/14/1 64/12/1
f 65/10/1 66/11/1 67/5/1 68/2/1
f 69/10/1 70/11/1 71/5/1 72/2/1
f 73/10/1 74/11/1 75/5/1 76/2/1
f 77/10/1 78/11/1 79/5/1 80/2/1
f 81/10/1 82/11/1 83/5/1 84/2/1
f 85/3/1 86/6/1 87/12/1 88/13/1
f 89/5/1 90/7/1 91/8/1 92/6/1
f 93/1/1 94/2/1 95/3/1 96/4/1
f 97/6/1 98/8/1 99/14/1 100/12/1
f 101/10/1 102/11/1 103/5/1 104/2/1
f 105/10/1 106/11/1 107/5/1 108/2/1
f 109/10/1 110/11/1 111/5/1 112/2/1
f 113/10/1 114/11/1 115/5/1 116/2/1
f 117/13/1 118/12/1 119/15/1 120/16/1
f 121/12/1 122/14/1 123/17/1 124/15/1
f 125/10/1 126/11/1 127/5/1 128/2/1
f 129/10/1 130/11/1 131/5/1 132/2/1
f 133/3/1 134/6/1 135/12/1 136/13/1
f 137/2/1 138/5/1 139/6/1 140/3/1
f 141/5/1 142/7/1 143/8/1 144/6/1
f 145/1/1 146/2/1 147/3/1 148/4/1
f 149/6/1 150/8/1 151/14/1 152/12/1
f 153/10/1 154/11/1 155/5/1 156/2/1
f 157/10/1 158/11/1 159/5/1 160/2/1
f 161/13/1 162/12/1 163/15/1 164/16/1
f 165/18/1 166/19/1 167/11/1 168/10/1
f 169/18/1 170/19/1 171/11/1 172/10/1
f 173/19/1 174/20/1 175/21/1 176/11/1
f 177/22/1 178/18/1 179/10/1 180/9/1
f 181/12/1 182/14/1 183/17/1 184/15/1
f 185/10/1 186/11/1 187/5/1 188/2/1
f 189/10/1 190/11/1 191/5/1 192/2/1
f 193/10/1 194/11/1 195/5/1 196/2/1
f 197/3/1 198/6/1 199/12/1 200/13/1
f 201/5/1 202/7/1 203/8/1 204/6/1
f 205/9/1 206/10/1 207/2/1 208/1/1
f 209/10/1 210/11/1 211/5/1 212/2/1
f 213/10/1 214/11/1 215/5/1 216/2/1
f 217/13/1 218/12/1 219/15/1 220/16/1
f 221/19/1 222/20/1 223/21/1 224/11/1
f 225/22/1 226/18/1 227/10/1 228/9/1
f 229/18/1 230/19/1 231/11/1 232/10/1
f 233/12/1 234/14/1 235/17/1 236/15/1
f 237/10/1 238/11/1 239/5/1 240/2/1
f 241/10/1 242/11/1 243/5/1 244/2/1
f 245/3/1 246/6/1 247/12/1 248/13/1
f 249/2/1 250/5/1 251/6/1 252/3/1
f 253/2/1 254/5/1 255/6/1 256/3/1
f 257/2/1 258/5/1 259/6/1 260/3/1
f 261/2/1 262/5/1 263/6/1 264/3/1
f 265/9/1 266/10/1 267/2/1 268/1/1
f 269/10/1 270/11/1 271/5/1 272/2/1
f 273/13/1 274/12/1 275/15/1 276/16/1
f 277/19/1 278/20/1 279/21/1 280/11/1
f 281/22/1 282/18/1 283/10/1 284/9/1
f 285/18/1 286/19/1 287/11/1 288/10/1
f 289/12/1 290/14/1 291/17/1 292/15/1
f 293/10/1 294/11/1 295/5/1 296/2/1
f 297/10/1 298/11/1 299/5/1 300/2/1
f 301/10/1 302/11/1 303/5/1 304/2/1
f 305/10/1 306/11/1 307/5/1 308/2/1
f 309/10/1 310/11/1 311/5/1 312/2/1
f 313/22/1 314/18/1 315/10/1 316/9/1
f 317/18/1 318/19/1 319/11/1 320/10/1
f 321/19/1 322/20/1 323/21/1 324/11/1
f 325/22/1 326/18/1 327/10/1 328/9/1
f 329/18/1 330/19/1 331/11/1 332/10/1
f 333/18/1 334/19/1 335/11/1 336/10/1
f 337/18/1 338/19/1 339/11/1 340/10/1
f 341/18/1 342/19/1 343/11/1 344/10/1
f 345/18/1 346/19/1 347/11/1 348/10/1

