# Tiled2Unity generated file. Do not modify by hand.
# Wavefront file for 'HomeOutside_mesh_0009.obj'

# Vertices (Count = 8)
v -2.24 -1.6 0
v -2.56 -1.6 0
v -2.56 -1.28 0
v -2.24 -1.28 0
v -2.24 -1.92 0
v -2.56 -1.92 0
v -2.56 -1.6 0
v -2.24 -1.6 0

# Texture cooridinates (Count = 6)
vt 0.4444444 0.8571429
vt 0.5555556 0.8571429
vt 0.5555556 1
vt 0.4444444 1
vt 0.4444444 0.7142857
vt 0.5555556 0.7142857

# Normal
vn 0 0 -1

# Mesh description
g HomeOutside_mesh_0009

# Faces
f 1/1/1 2/2/1 3/3/1 4/4/1
f 5/5/1 6/6/1 7/2/1 8/1/1

