# Tiled2Unity generated file. Do not modify by hand.
# Wavefront file for 'HomeOutside_mesh_0014.obj'

# Vertices (Count = 176)
v -4.8 -0.32 0
v -5.12 -0.32 0
v -5.12 0 0
v -4.8 0 0
v -5.12 -0.32 0
v -5.44 -0.32 0
v -5.44 0 0
v -5.12 0 0
v -5.44 -0.32 0
v -5.76 -0.32 0
v -5.76 0 0
v -5.44 0 0
v -5.76 -0.32 0
v -6.08 -0.32 0
v -6.08 0 0
v -5.76 0 0
v -4.8 -0.64 0
v -5.12 -0.64 0
v -5.12 -0.32 0
v -4.8 -0.32 0
v -5.12 -0.64 0
v -5.44 -0.64 0
v -5.44 -0.32 0
v -5.12 -0.32 0
v -5.44 -0.64 0
v -5.76 -0.64 0
v -5.76 -0.32 0
v -5.44 -0.32 0
v -5.76 -0.64 0
v -6.08 -0.64 0
v -6.08 -0.32 0
v -5.76 -0.32 0
v 0 -1.6 0
v -0.32 -1.6 0
v -0.32 -1.28 0
v 0 -1.28 0
v -0.32 -1.6 0
v -0.64 -1.6 0
v -0.64 -1.28 0
v -0.32 -1.28 0
v -0.64 -1.6 0
v -0.96 -1.6 0
v -0.96 -1.28 0
v -0.64 -1.28 0
v 0 -1.92 0
v -0.32 -1.92 0
v -0.32 -1.6 0
v 0 -1.6 0
v -0.32 -1.92 0
v -0.64 -1.92 0
v -0.64 -1.6 0
v -0.32 -1.6 0
v -0.64 -1.92 0
v -0.96 -1.92 0
v -0.96 -1.6 0
v -0.64 -1.6 0
v 0 -2.24 0
v -0.32 -2.24 0
v -0.32 -1.92 0
v 0 -1.92 0
v -0.32 -2.24 0
v -0.64 -2.24 0
v -0.64 -1.92 0
v -0.32 -1.92 0
v -0.64 -2.24 0
v -0.96 -2.24 0
v -0.96 -1.92 0
v -0.64 -1.92 0
v -1.28 -3.2 0
v -1.6 -3.2 0
v -1.6 -2.88 0
v -1.28 -2.88 0
v -1.6 -3.2 0
v -1.92 -3.2 0
v -1.92 -2.88 0
v -1.6 -2.88 0
v -1.92 -3.2 0
v -2.24 -3.2 0
v -2.24 -2.88 0
v -1.92 -2.88 0
v 0 -3.52 0
v -0.32 -3.52 0
v -0.32 -3.2 0
v 0 -3.2 0
v -0.32 -3.52 0
v -0.64 -3.52 0
v -0.64 -3.2 0
v -0.32 -3.2 0
v -0.64 -3.52 0
v -0.96 -3.52 0
v -0.96 -3.2 0
v -0.64 -3.2 0
v -1.28 -3.52 0
v -1.6 -3.52 0
v -1.6 -3.2 0
v -1.28 -3.2 0
v -1.6 -3.52 0
v -1.92 -3.52 0
v -1.92 -3.2 0
v -1.6 -3.2 0
v -1.92 -3.52 0
v -2.24 -3.52 0
v -2.24 -3.2 0
v -1.92 -3.2 0
v -4.16 -3.52 0
v -4.48 -3.52 0
v -4.48 -3.2 0
v -4.16 -3.2 0
v -4.48 -3.52 0
v -4.8 -3.52 0
v -4.8 -3.2 0
v -4.48 -3.2 0
v -4.8 -3.52 0
v -5.12 -3.52 0
v -5.12 -3.2 0
v -4.8 -3.2 0
v 0 -3.84 0
v -0.32 -3.84 0
v -0.32 -3.52 0
v 0 -3.52 0
v -0.32 -3.84 0
v -0.64 -3.84 0
v -0.64 -3.52 0
v -0.32 -3.52 0
v -0.64 -3.84 0
v -0.96 -3.84 0
v -0.96 -3.52 0
v -0.64 -3.52 0
v -1.28 -3.84 0
v -1.6 -3.84 0
v -1.6 -3.52 0
v -1.28 -3.52 0
v -1.6 -3.84 0
v -1.92 -3.84 0
v -1.92 -3.52 0
v -1.6 -3.52 0
v -1.92 -3.84 0
v -2.24 -3.84 0
v -2.24 -3.52 0
v -1.92 -3.52 0
v -4.16 -3.84 0
v -4.48 -3.84 0
v -4.48 -3.52 0
v -4.16 -3.52 0
v -4.48 -3.84 0
v -4.8 -3.84 0
v -4.8 -3.52 0
v -4.48 -3.52 0
v -4.8 -3.84 0
v -5.12 -3.84 0
v -5.12 -3.52 0
v -4.8 -3.52 0
v 0 -4.16 0
v -0.32 -4.16 0
v -0.32 -3.84 0
v 0 -3.84 0
v -0.32 -4.16 0
v -0.64 -4.16 0
v -0.64 -3.84 0
v -0.32 -3.84 0
v -0.64 -4.16 0
v -0.96 -4.16 0
v -0.96 -3.84 0
v -0.64 -3.84 0
v -4.16 -4.16 0
v -4.48 -4.16 0
v -4.48 -3.84 0
v -4.16 -3.84 0
v -4.48 -4.16 0
v -4.8 -4.16 0
v -4.8 -3.84 0
v -4.48 -3.84 0
v -4.8 -4.16 0
v -5.12 -4.16 0
v -5.12 -3.84 0
v -4.8 -3.84 0

# Texture cooridinates (Count = 31)
vt 0.40625 0.59375
vt 0.4375 0.59375
vt 0.4375 0.625
vt 0.40625 0.625
vt 0.46875 0.59375
vt 0.46875 0.625
vt 0.5 0.59375
vt 0.5 0.625
vt 0.53125 0.59375
vt 0.53125 0.625
vt 0.40625 0.5625
vt 0.4375 0.5625
vt 0.46875 0.5625
vt 0.5 0.5625
vt 0.53125 0.5625
vt 0.125 0.625
vt 0.15625 0.625
vt 0.15625 0.65625
vt 0.125 0.65625
vt 0.1875 0.625
vt 0.1875 0.65625
vt 0.21875 0.625
vt 0.21875 0.65625
vt 0.125 0.59375
vt 0.15625 0.59375
vt 0.1875 0.59375
vt 0.21875 0.59375
vt 0.125 0.5625
vt 0.15625 0.5625
vt 0.1875 0.5625
vt 0.21875 0.5625

# Normal
vn 0 0 -1

# Mesh description
g HomeOutside_mesh_0014

# Faces
f 1/1/1 2/2/1 3/3/1 4/4/1
f 5/2/1 6/5/1 7/6/1 8/3/1
f 9/5/1 10/7/1 11/8/1 12/6/1
f 13/7/1 14/9/1 15/10/1 16/8/1
f 17/11/1 18/12/1 19/2/1 20/1/1
f 21/12/1 22/13/1 23/5/1 24/2/1
f 25/13/1 26/14/1 27/7/1 28/5/1
f 29/14/1 30/15/1 31/9/1 32/7/1
f 33/16/1 34/17/1 35/18/1 36/19/1
f 37/17/1 38/20/1 39/21/1 40/18/1
f 41/20/1 42/22/1 43/23/1 44/21/1
f 45/24/1 46/25/1 47/17/1 48/16/1
f 49/25/1 50/26/1 51/20/1 52/17/1
f 53/26/1 54/27/1 55/22/1 56/20/1
f 57/28/1 58/29/1 59/25/1 60/24/1
f 61/29/1 62/30/1 63/26/1 64/25/1
f 65/30/1 66/31/1 67/27/1 68/26/1
f 69/16/1 70/17/1 71/18/1 72/19/1
f 73/17/1 74/20/1 75/21/1 76/18/1
f 77/20/1 78/22/1 79/23/1 80/21/1
f 81/16/1 82/17/1 83/18/1 84/19/1
f 85/17/1 86/20/1 87/21/1 88/18/1
f 89/20/1 90/22/1 91/23/1 92/21/1
f 93/24/1 94/25/1 95/17/1 96/16/1
f 97/25/1 98/26/1 99/20/1 100/17/1
f 101/26/1 102/27/1 103/22/1 104/20/1
f 105/16/1 106/17/1 107/18/1 108/19/1
f 109/17/1 110/20/1 111/21/1 112/18/1
f 113/20/1 114/22/1 115/23/1 116/21/1
f 117/24/1 118/25/1 119/17/1 120/16/1
f 121/25/1 122/26/1 123/20/1 124/17/1
f 125/26/1 126/27/1 127/22/1 128/20/1
f 129/28/1 130/29/1 131/25/1 132/24/1
f 133/29/1 134/30/1 135/26/1 136/25/1
f 137/30/1 138/31/1 139/27/1 140/26/1
f 141/24/1 142/25/1 143/17/1 144/16/1
f 145/25/1 146/26/1 147/20/1 148/17/1
f 149/26/1 150/27/1 151/22/1 152/20/1
f 153/28/1 154/29/1 155/25/1 156/24/1
f 157/29/1 158/30/1 159/26/1 160/25/1
f 161/30/1 162/31/1 163/27/1 164/26/1
f 165/28/1 166/29/1 167/25/1 168/24/1
f 169/29/1 170/30/1 171/26/1 172/25/1
f 173/30/1 174/31/1 175/27/1 176/26/1

