# Tiled2Unity generated file. Do not modify by hand.
# Wavefront file for 'CastleInside_mesh_0014.obj'

# Vertices (Count = 24)
v -0.32 -0.64 0
v -0.64 -0.64 0
v -0.64 -0.32 0
v -0.32 -0.32 0
v -3.52 -0.64 0
v -3.84 -0.64 0
v -3.84 -0.32 0
v -3.52 -0.32 0
v -5.44 -0.64 0
v -5.76 -0.64 0
v -5.76 -0.32 0
v -5.44 -0.32 0
v -0.32 -0.96 0
v -0.64 -0.96 0
v -0.64 -0.64 0
v -0.32 -0.64 0
v -3.52 -0.96 0
v -3.84 -0.96 0
v -3.84 -0.64 0
v -3.52 -0.64 0
v -5.44 -0.96 0
v -5.76 -0.96 0
v -5.76 -0.64 0
v -5.44 -0.64 0

# Texture cooridinates (Count = 12)
vt 0.3333333 0.8571429
vt 0.4444444 0.8571429
vt 0.4444444 1
vt 0.3333333 1
vt 0.5555556 0.8571429
vt 0.6666667 0.8571429
vt 0.6666667 1
vt 0.5555556 1
vt 0.3333333 0.7142857
vt 0.4444444 0.7142857
vt 0.5555556 0.7142857
vt 0.6666667 0.7142857

# Normal
vn 0 0 -1

# Mesh description
g CastleInside_mesh_0014

# Faces
f 1/1/1 2/2/1 3/3/1 4/4/1
f 5/5/1 6/6/1 7/7/1 8/8/1
f 9/1/1 10/2/1 11/3/1 12/4/1
f 13/9/1 14/10/1 15/2/1 16/1/1
f 17/11/1 18/12/1 19/6/1 20/5/1
f 21/9/1 22/10/1 23/2/1 24/1/1

