# Tiled2Unity generated file. Do not modify by hand.
# Wavefront file for 'CastleInside_mesh_0008.obj'

# Vertices (Count = 24)
v -4.16 -0.32 0
v -4.48 -0.32 0
v -4.48 0 0
v -4.16 0 0
v -4.8 -0.32 0
v -5.12 -0.32 0
v -5.12 0 0
v -4.8 0 0
v -4.16 -0.64 0
v -4.48 -0.64 0
v -4.48 -0.32 0
v -4.16 -0.32 0
v -4.8 -0.64 0
v -5.12 -0.64 0
v -5.12 -0.32 0
v -4.8 -0.32 0
v -0.64 -0.96 0
v -0.96 -0.96 0
v -0.96 -0.64 0
v -0.64 -0.64 0
v -4.48 -0.96 0
v -4.8 -0.96 0
v -4.8 -0.64 0
v -4.48 -0.64 0

# Texture cooridinates (Count = 10)
vt 0.5 0.75
vt 0.5416667 0.75
vt 0.5416667 0.8125
vt 0.5 0.8125
vt 0.5 0.6875
vt 0.5416667 0.6875
vt 0.2916667 0.6875
vt 0.3333333 0.6875
vt 0.3333333 0.75
vt 0.2916667 0.75

# Normal
vn 0 0 -1

# Mesh description
g CastleInside_mesh_0008

# Faces
f 1/1/1 2/2/1 3/3/1 4/4/1
f 5/1/1 6/2/1 7/3/1 8/4/1
f 9/5/1 10/6/1 11/2/1 12/1/1
f 13/5/1 14/6/1 15/2/1 16/1/1
f 17/7/1 18/8/1 19/9/1 20/10/1
f 21/7/1 22/8/1 23/9/1 24/10/1

