# Tiled2Unity generated file. Do not modify by hand.
# Wavefront file for 'CastleInside_mesh_0010.obj'

# Vertices (Count = 12)
v 0 -0.64 0
v -0.32 -0.64 0
v -0.32 -0.32 0
v 0 -0.32 0
v -3.2 -0.64 0
v -3.52 -0.64 0
v -3.52 -0.32 0
v -3.2 -0.32 0
v -5.76 -0.64 0
v -6.08 -0.64 0
v -6.08 -0.32 0
v -5.76 -0.32 0

# Texture cooridinates (Count = 4)
vt 0.6666667 0.9375
vt 0.7083333 0.9375
vt 0.7083333 1
vt 0.6666667 1

# Normal
vn 0 0 -1

# Mesh description
g CastleInside_mesh_0010

# Faces
f 1/1/1 2/2/1 3/3/1 4/4/1
f 5/1/1 6/2/1 7/3/1 8/4/1
f 9/1/1 10/2/1 11/3/1 12/4/1

