# Tiled2Unity generated file. Do not modify by hand.
# Wavefront file for 'Small_shop_mesh_0002.obj'

# Vertices (Count = 52)
v -1.92 -3.84 0
v -2.24 -3.84 0
v -2.24 -3.52 0
v -1.92 -3.52 0
v -2.24 -3.84 0
v -2.56 -3.84 0
v -2.56 -3.52 0
v -2.24 -3.52 0
v -2.56 -3.84 0
v -2.88 -3.84 0
v -2.88 -3.52 0
v -2.56 -3.52 0
v -2.88 -3.84 0
v -3.2 -3.84 0
v -3.2 -3.52 0
v -2.88 -3.52 0
v -3.2 -3.84 0
v -3.52 -3.84 0
v -3.52 -3.52 0
v -3.2 -3.52 0
v -1.92 -4.16 0
v -2.24 -4.16 0
v -2.24 -3.84 0
v -1.92 -3.84 0
v -2.24 -4.16 0
v -2.56 -4.16 0
v -2.56 -3.84 0
v -2.24 -3.84 0
v -2.56 -4.16 0
v -2.88 -4.16 0
v -2.88 -3.84 0
v -2.56 -3.84 0
v -2.88 -4.16 0
v -3.2 -4.16 0
v -3.2 -3.84 0
v -2.88 -3.84 0
v -3.2 -4.16 0
v -3.52 -4.16 0
v -3.52 -3.84 0
v -3.2 -3.84 0
v -2.56 -4.48 0
v -2.88 -4.48 0
v -2.88 -4.16 0
v -2.56 -4.16 0
v -2.88 -4.48 0
v -3.2 -4.48 0
v -3.2 -4.16 0
v -2.88 -4.16 0
v -3.2 -4.48 0
v -3.52 -4.48 0
v -3.52 -4.16 0
v -3.2 -4.16 0

# Texture cooridinates (Count = 19)
vt 0.1 0.3
vt 0.2 0.3
vt 0.2 0.4
vt 0.1 0.4
vt 0.3 0.3
vt 0.3 0.4
vt 0.4 0.3
vt 0.4 0.4
vt 0.1 0.1
vt 0.2 0.1
vt 0.2 0.2
vt 0.1 0.2
vt 0.3 0.1
vt 0.3 0.2
vt 0.5 0.4
vt 0.5 0.5
vt 0.4 0.5
vt 0.4 0.2
vt 0.4 0.1

# Normal
vn 0 0 -1

# Mesh description
g Small_shop_mesh_0002

# Faces
f 1/1/1 2/2/1 3/3/1 4/4/1
f 5/2/1 6/5/1 7/6/1 8/3/1
f 9/2/1 10/5/1 11/6/1 12/3/1
f 13/2/1 14/5/1 15/6/1 16/3/1
f 17/5/1 18/7/1 19/8/1 20/6/1
f 21/9/1 22/10/1 23/11/1 24/12/1
f 25/10/1 26/13/1 27/14/1 28/11/1
f 29/8/1 30/15/1 31/16/1 32/17/1
f 33/11/1 34/14/1 35/5/1 36/2/1
f 37/14/1 38/18/1 39/7/1 40/5/1
f 41/9/1 42/10/1 43/11/1 44/12/1
f 45/10/1 46/13/1 47/14/1 48/11/1
f 49/13/1 50/19/1 51/18/1 52/14/1

